<mxfile host="app.diagrams.net" modified="2021-08-07T09:55:16.734Z" agent="5.0 (Windows NT 10.0; Win64; x64) AppleWebKit/537.36 (KHTML, like Gecko) Chrome/92.0.4515.107 Safari/537.36" etag="MMhxh33hdkOiHgcxTPQm" version="14.7.1" type="github">
  <diagram id="quGtXUBF5FbxNecBhHpY" name="Page-1">
    <mxGraphModel dx="1662" dy="762" grid="1" gridSize="10" guides="1" tooltips="1" connect="1" arrows="1" fold="1" page="1" pageScale="1" pageWidth="827" pageHeight="1169" math="0" shadow="0">
      <root>
        <mxCell id="0" />
        <mxCell id="1" parent="0" />
        <mxCell id="6-7wuTl4m9Mj6VLQIsdH-1" value="PC" style="swimlane;fontStyle=1;align=center;verticalAlign=top;childLayout=stackLayout;horizontal=1;startSize=26;horizontalStack=0;resizeParent=1;resizeParentMax=0;resizeLast=0;collapsible=1;marginBottom=0;" vertex="1" parent="1">
          <mxGeometry x="30" y="210" width="160" height="190" as="geometry" />
        </mxCell>
        <mxCell id="6-7wuTl4m9Mj6VLQIsdH-2" value="CPU cpu&#xa;" style="text;strokeColor=none;fillColor=none;align=left;verticalAlign=top;spacingLeft=4;spacingRight=4;overflow=hidden;rotatable=0;points=[[0,0.5],[1,0.5]];portConstraint=eastwest;" vertex="1" parent="6-7wuTl4m9Mj6VLQIsdH-1">
          <mxGeometry y="26" width="160" height="26" as="geometry" />
        </mxCell>
        <mxCell id="6-7wuTl4m9Mj6VLQIsdH-5" value="GPU gpu" style="text;strokeColor=none;fillColor=none;align=left;verticalAlign=top;spacingLeft=4;spacingRight=4;overflow=hidden;rotatable=0;points=[[0,0.5],[1,0.5]];portConstraint=eastwest;" vertex="1" parent="6-7wuTl4m9Mj6VLQIsdH-1">
          <mxGeometry y="52" width="160" height="26" as="geometry" />
        </mxCell>
        <mxCell id="6-7wuTl4m9Mj6VLQIsdH-6" value="RamChip[] = new RamChip[4]" style="text;strokeColor=none;fillColor=none;align=left;verticalAlign=top;spacingLeft=4;spacingRight=4;overflow=hidden;rotatable=0;points=[[0,0.5],[1,0.5]];portConstraint=eastwest;" vertex="1" parent="6-7wuTl4m9Mj6VLQIsdH-1">
          <mxGeometry y="78" width="160" height="26" as="geometry" />
        </mxCell>
        <mxCell id="6-7wuTl4m9Mj6VLQIsdH-7" value="PowerSupply powerSupply" style="text;strokeColor=none;fillColor=none;align=left;verticalAlign=top;spacingLeft=4;spacingRight=4;overflow=hidden;rotatable=0;points=[[0,0.5],[1,0.5]];portConstraint=eastwest;" vertex="1" parent="6-7wuTl4m9Mj6VLQIsdH-1">
          <mxGeometry y="104" width="160" height="26" as="geometry" />
        </mxCell>
        <mxCell id="6-7wuTl4m9Mj6VLQIsdH-8" value="Fan fan" style="text;strokeColor=none;fillColor=none;align=left;verticalAlign=top;spacingLeft=4;spacingRight=4;overflow=hidden;rotatable=0;points=[[0,0.5],[1,0.5]];portConstraint=eastwest;" vertex="1" parent="6-7wuTl4m9Mj6VLQIsdH-1">
          <mxGeometry y="130" width="160" height="26" as="geometry" />
        </mxCell>
        <mxCell id="6-7wuTl4m9Mj6VLQIsdH-3" value="" style="line;strokeWidth=1;fillColor=none;align=left;verticalAlign=middle;spacingTop=-1;spacingLeft=3;spacingRight=3;rotatable=0;labelPosition=right;points=[];portConstraint=eastwest;" vertex="1" parent="6-7wuTl4m9Mj6VLQIsdH-1">
          <mxGeometry y="156" width="160" height="8" as="geometry" />
        </mxCell>
        <mxCell id="6-7wuTl4m9Mj6VLQIsdH-4" value="+ method(type): type" style="text;strokeColor=none;fillColor=none;align=left;verticalAlign=top;spacingLeft=4;spacingRight=4;overflow=hidden;rotatable=0;points=[[0,0.5],[1,0.5]];portConstraint=eastwest;" vertex="1" parent="6-7wuTl4m9Mj6VLQIsdH-1">
          <mxGeometry y="164" width="160" height="26" as="geometry" />
        </mxCell>
        <mxCell id="6-7wuTl4m9Mj6VLQIsdH-9" value="PCBuilder" style="swimlane;fontStyle=1;align=center;verticalAlign=top;childLayout=stackLayout;horizontal=1;startSize=26;horizontalStack=0;resizeParent=1;resizeParentMax=0;resizeLast=0;collapsible=1;marginBottom=0;" vertex="1" parent="1">
          <mxGeometry x="390" y="90" width="160" height="216" as="geometry" />
        </mxCell>
        <mxCell id="6-7wuTl4m9Mj6VLQIsdH-11" value="" style="line;strokeWidth=1;fillColor=none;align=left;verticalAlign=middle;spacingTop=-1;spacingLeft=3;spacingRight=3;rotatable=0;labelPosition=right;points=[];portConstraint=eastwest;" vertex="1" parent="6-7wuTl4m9Mj6VLQIsdH-9">
          <mxGeometry y="26" width="160" height="8" as="geometry" />
        </mxCell>
        <mxCell id="6-7wuTl4m9Mj6VLQIsdH-12" value="addCpu(CPU cpu)" style="text;strokeColor=none;fillColor=none;align=left;verticalAlign=top;spacingLeft=4;spacingRight=4;overflow=hidden;rotatable=0;points=[[0,0.5],[1,0.5]];portConstraint=eastwest;" vertex="1" parent="6-7wuTl4m9Mj6VLQIsdH-9">
          <mxGeometry y="34" width="160" height="26" as="geometry" />
        </mxCell>
        <mxCell id="6-7wuTl4m9Mj6VLQIsdH-13" value="addGpu(GPU gpu)" style="text;strokeColor=none;fillColor=none;align=left;verticalAlign=top;spacingLeft=4;spacingRight=4;overflow=hidden;rotatable=0;points=[[0,0.5],[1,0.5]];portConstraint=eastwest;" vertex="1" parent="6-7wuTl4m9Mj6VLQIsdH-9">
          <mxGeometry y="60" width="160" height="26" as="geometry" />
        </mxCell>
        <mxCell id="6-7wuTl4m9Mj6VLQIsdH-14" value="addRamChip(RamChip ramChip)" style="text;strokeColor=none;fillColor=none;align=left;verticalAlign=top;spacingLeft=4;spacingRight=4;overflow=hidden;rotatable=0;points=[[0,0.5],[1,0.5]];portConstraint=eastwest;" vertex="1" parent="6-7wuTl4m9Mj6VLQIsdH-9">
          <mxGeometry y="86" width="160" height="26" as="geometry" />
        </mxCell>
        <mxCell id="6-7wuTl4m9Mj6VLQIsdH-15" value="addFan(Fan fan)" style="text;strokeColor=none;fillColor=none;align=left;verticalAlign=top;spacingLeft=4;spacingRight=4;overflow=hidden;rotatable=0;points=[[0,0.5],[1,0.5]];portConstraint=eastwest;" vertex="1" parent="6-7wuTl4m9Mj6VLQIsdH-9">
          <mxGeometry y="112" width="160" height="26" as="geometry" />
        </mxCell>
        <mxCell id="6-7wuTl4m9Mj6VLQIsdH-16" value="addPowerSupply(PowerSupply powerSupply)" style="text;strokeColor=none;fillColor=none;align=left;verticalAlign=top;spacingLeft=4;spacingRight=4;overflow=hidden;rotatable=0;points=[[0,0.5],[1,0.5]];portConstraint=eastwest;" vertex="1" parent="6-7wuTl4m9Mj6VLQIsdH-9">
          <mxGeometry y="138" width="160" height="26" as="geometry" />
        </mxCell>
        <mxCell id="6-7wuTl4m9Mj6VLQIsdH-20" value="isRunnable()" style="text;strokeColor=none;fillColor=none;align=left;verticalAlign=top;spacingLeft=4;spacingRight=4;overflow=hidden;rotatable=0;points=[[0,0.5],[1,0.5]];portConstraint=eastwest;" vertex="1" parent="6-7wuTl4m9Mj6VLQIsdH-9">
          <mxGeometry y="164" width="160" height="26" as="geometry" />
        </mxCell>
        <mxCell id="6-7wuTl4m9Mj6VLQIsdH-21" value="build()" style="text;strokeColor=none;fillColor=none;align=left;verticalAlign=top;spacingLeft=4;spacingRight=4;overflow=hidden;rotatable=0;points=[[0,0.5],[1,0.5]];portConstraint=eastwest;" vertex="1" parent="6-7wuTl4m9Mj6VLQIsdH-9">
          <mxGeometry y="190" width="160" height="26" as="geometry" />
        </mxCell>
        <mxCell id="6-7wuTl4m9Mj6VLQIsdH-22" value="Component" style="swimlane;fontStyle=1;align=center;verticalAlign=top;childLayout=stackLayout;horizontal=1;startSize=26;horizontalStack=0;resizeParent=1;resizeParentMax=0;resizeLast=0;collapsible=1;marginBottom=0;" vertex="1" parent="1">
          <mxGeometry x="280" y="440" width="160" height="112" as="geometry" />
        </mxCell>
        <mxCell id="6-7wuTl4m9Mj6VLQIsdH-23" value="String name" style="text;strokeColor=none;fillColor=none;align=left;verticalAlign=top;spacingLeft=4;spacingRight=4;overflow=hidden;rotatable=0;points=[[0,0.5],[1,0.5]];portConstraint=eastwest;" vertex="1" parent="6-7wuTl4m9Mj6VLQIsdH-22">
          <mxGeometry y="26" width="160" height="26" as="geometry" />
        </mxCell>
        <mxCell id="6-7wuTl4m9Mj6VLQIsdH-30" value="int powerImpact" style="text;strokeColor=none;fillColor=none;align=left;verticalAlign=top;spacingLeft=4;spacingRight=4;overflow=hidden;rotatable=0;points=[[0,0.5],[1,0.5]];portConstraint=eastwest;" vertex="1" parent="6-7wuTl4m9Mj6VLQIsdH-22">
          <mxGeometry y="52" width="160" height="26" as="geometry" />
        </mxCell>
        <mxCell id="6-7wuTl4m9Mj6VLQIsdH-24" value="" style="line;strokeWidth=1;fillColor=none;align=left;verticalAlign=middle;spacingTop=-1;spacingLeft=3;spacingRight=3;rotatable=0;labelPosition=right;points=[];portConstraint=eastwest;" vertex="1" parent="6-7wuTl4m9Mj6VLQIsdH-22">
          <mxGeometry y="78" width="160" height="8" as="geometry" />
        </mxCell>
        <mxCell id="6-7wuTl4m9Mj6VLQIsdH-25" value="+ method(type): type" style="text;strokeColor=none;fillColor=none;align=left;verticalAlign=top;spacingLeft=4;spacingRight=4;overflow=hidden;rotatable=0;points=[[0,0.5],[1,0.5]];portConstraint=eastwest;" vertex="1" parent="6-7wuTl4m9Mj6VLQIsdH-22">
          <mxGeometry y="86" width="160" height="26" as="geometry" />
        </mxCell>
        <mxCell id="6-7wuTl4m9Mj6VLQIsdH-53" style="edgeStyle=orthogonalEdgeStyle;rounded=0;orthogonalLoop=1;jettySize=auto;html=1;" edge="1" parent="1" source="6-7wuTl4m9Mj6VLQIsdH-42" target="6-7wuTl4m9Mj6VLQIsdH-1">
          <mxGeometry relative="1" as="geometry">
            <Array as="points">
              <mxPoint x="360" y="130" />
              <mxPoint x="110" y="130" />
            </Array>
          </mxGeometry>
        </mxCell>
        <mxCell id="6-7wuTl4m9Mj6VLQIsdH-55" style="edgeStyle=orthogonalEdgeStyle;rounded=0;orthogonalLoop=1;jettySize=auto;html=1;entryX=0.95;entryY=0;entryDx=0;entryDy=0;entryPerimeter=0;" edge="1" parent="1" source="6-7wuTl4m9Mj6VLQIsdH-42" target="6-7wuTl4m9Mj6VLQIsdH-9">
          <mxGeometry relative="1" as="geometry" />
        </mxCell>
        <mxCell id="6-7wuTl4m9Mj6VLQIsdH-42" value="&lt;&lt;interface&gt;&gt; Checkable" style="swimlane;fontStyle=0;childLayout=stackLayout;horizontal=1;startSize=26;fillColor=none;horizontalStack=0;resizeParent=1;resizeParentMax=0;resizeLast=0;collapsible=1;marginBottom=0;" vertex="1" parent="1">
          <mxGeometry x="90" y="20" width="140" height="52" as="geometry" />
        </mxCell>
        <mxCell id="6-7wuTl4m9Mj6VLQIsdH-43" value="boolean isRunnable()" style="text;strokeColor=none;fillColor=none;align=left;verticalAlign=top;spacingLeft=4;spacingRight=4;overflow=hidden;rotatable=0;points=[[0,0.5],[1,0.5]];portConstraint=eastwest;" vertex="1" parent="6-7wuTl4m9Mj6VLQIsdH-42">
          <mxGeometry y="26" width="140" height="26" as="geometry" />
        </mxCell>
        <mxCell id="6-7wuTl4m9Mj6VLQIsdH-52" style="edgeStyle=orthogonalEdgeStyle;rounded=0;orthogonalLoop=1;jettySize=auto;html=1;" edge="1" parent="1" source="6-7wuTl4m9Mj6VLQIsdH-46" target="6-7wuTl4m9Mj6VLQIsdH-1">
          <mxGeometry relative="1" as="geometry" />
        </mxCell>
        <mxCell id="6-7wuTl4m9Mj6VLQIsdH-46" value="&lt;&lt;interface&gt;&gt; Runable" style="swimlane;fontStyle=0;childLayout=stackLayout;horizontal=1;startSize=26;fillColor=none;horizontalStack=0;resizeParent=1;resizeParentMax=0;resizeLast=0;collapsible=1;marginBottom=0;" vertex="1" parent="1">
          <mxGeometry x="40" y="510" width="140" height="52" as="geometry" />
        </mxCell>
        <mxCell id="6-7wuTl4m9Mj6VLQIsdH-47" value="void run()" style="text;strokeColor=none;fillColor=none;align=left;verticalAlign=top;spacingLeft=4;spacingRight=4;overflow=hidden;rotatable=0;points=[[0,0.5],[1,0.5]];portConstraint=eastwest;" vertex="1" parent="6-7wuTl4m9Mj6VLQIsdH-46">
          <mxGeometry y="26" width="140" height="26" as="geometry" />
        </mxCell>
        <mxCell id="6-7wuTl4m9Mj6VLQIsdH-73" style="edgeStyle=orthogonalEdgeStyle;rounded=0;orthogonalLoop=1;jettySize=auto;html=1;entryX=0.75;entryY=0;entryDx=0;entryDy=0;" edge="1" parent="1" source="6-7wuTl4m9Mj6VLQIsdH-56" target="6-7wuTl4m9Mj6VLQIsdH-22">
          <mxGeometry relative="1" as="geometry" />
        </mxCell>
        <mxCell id="6-7wuTl4m9Mj6VLQIsdH-56" value="GPU&#xa;" style="swimlane;fontStyle=1;align=center;verticalAlign=top;childLayout=stackLayout;horizontal=1;startSize=26;horizontalStack=0;resizeParent=1;resizeParentMax=0;resizeLast=0;collapsible=1;marginBottom=0;" vertex="1" parent="1">
          <mxGeometry x="480" y="330" width="160" height="34" as="geometry" />
        </mxCell>
        <mxCell id="6-7wuTl4m9Mj6VLQIsdH-58" value="" style="line;strokeWidth=1;fillColor=none;align=left;verticalAlign=middle;spacingTop=-1;spacingLeft=3;spacingRight=3;rotatable=0;labelPosition=right;points=[];portConstraint=eastwest;" vertex="1" parent="6-7wuTl4m9Mj6VLQIsdH-56">
          <mxGeometry y="26" width="160" height="8" as="geometry" />
        </mxCell>
        <mxCell id="6-7wuTl4m9Mj6VLQIsdH-74" style="edgeStyle=orthogonalEdgeStyle;rounded=0;orthogonalLoop=1;jettySize=auto;html=1;" edge="1" parent="1" source="6-7wuTl4m9Mj6VLQIsdH-61" target="6-7wuTl4m9Mj6VLQIsdH-22">
          <mxGeometry relative="1" as="geometry" />
        </mxCell>
        <mxCell id="6-7wuTl4m9Mj6VLQIsdH-61" value="CPU" style="swimlane;fontStyle=1;align=center;verticalAlign=top;childLayout=stackLayout;horizontal=1;startSize=26;horizontalStack=0;resizeParent=1;resizeParentMax=0;resizeLast=0;collapsible=1;marginBottom=0;" vertex="1" parent="1">
          <mxGeometry x="480" y="390" width="160" height="34" as="geometry" />
        </mxCell>
        <mxCell id="6-7wuTl4m9Mj6VLQIsdH-62" value="" style="line;strokeWidth=1;fillColor=none;align=left;verticalAlign=middle;spacingTop=-1;spacingLeft=3;spacingRight=3;rotatable=0;labelPosition=right;points=[];portConstraint=eastwest;" vertex="1" parent="6-7wuTl4m9Mj6VLQIsdH-61">
          <mxGeometry y="26" width="160" height="8" as="geometry" />
        </mxCell>
        <mxCell id="6-7wuTl4m9Mj6VLQIsdH-75" style="edgeStyle=orthogonalEdgeStyle;rounded=0;orthogonalLoop=1;jettySize=auto;html=1;entryX=0.875;entryY=0.009;entryDx=0;entryDy=0;entryPerimeter=0;" edge="1" parent="1" source="6-7wuTl4m9Mj6VLQIsdH-63" target="6-7wuTl4m9Mj6VLQIsdH-22">
          <mxGeometry relative="1" as="geometry" />
        </mxCell>
        <mxCell id="6-7wuTl4m9Mj6VLQIsdH-63" value="RamChip" style="swimlane;fontStyle=1;align=center;verticalAlign=top;childLayout=stackLayout;horizontal=1;startSize=26;horizontalStack=0;resizeParent=1;resizeParentMax=0;resizeLast=0;collapsible=1;marginBottom=0;" vertex="1" parent="1">
          <mxGeometry x="480" y="430" width="160" height="34" as="geometry" />
        </mxCell>
        <mxCell id="6-7wuTl4m9Mj6VLQIsdH-64" value="" style="line;strokeWidth=1;fillColor=none;align=left;verticalAlign=middle;spacingTop=-1;spacingLeft=3;spacingRight=3;rotatable=0;labelPosition=right;points=[];portConstraint=eastwest;" vertex="1" parent="6-7wuTl4m9Mj6VLQIsdH-63">
          <mxGeometry y="26" width="160" height="8" as="geometry" />
        </mxCell>
        <mxCell id="6-7wuTl4m9Mj6VLQIsdH-76" style="edgeStyle=orthogonalEdgeStyle;rounded=0;orthogonalLoop=1;jettySize=auto;html=1;" edge="1" parent="1" source="6-7wuTl4m9Mj6VLQIsdH-65" target="6-7wuTl4m9Mj6VLQIsdH-30">
          <mxGeometry relative="1" as="geometry" />
        </mxCell>
        <mxCell id="6-7wuTl4m9Mj6VLQIsdH-65" value="PowerSupply" style="swimlane;fontStyle=1;align=center;verticalAlign=top;childLayout=stackLayout;horizontal=1;startSize=26;horizontalStack=0;resizeParent=1;resizeParentMax=0;resizeLast=0;collapsible=1;marginBottom=0;" vertex="1" parent="1">
          <mxGeometry x="480" y="479" width="160" height="34" as="geometry" />
        </mxCell>
        <mxCell id="6-7wuTl4m9Mj6VLQIsdH-66" value="" style="line;strokeWidth=1;fillColor=none;align=left;verticalAlign=middle;spacingTop=-1;spacingLeft=3;spacingRight=3;rotatable=0;labelPosition=right;points=[];portConstraint=eastwest;" vertex="1" parent="6-7wuTl4m9Mj6VLQIsdH-65">
          <mxGeometry y="26" width="160" height="8" as="geometry" />
        </mxCell>
        <mxCell id="6-7wuTl4m9Mj6VLQIsdH-77" style="edgeStyle=orthogonalEdgeStyle;rounded=0;orthogonalLoop=1;jettySize=auto;html=1;" edge="1" parent="1" source="6-7wuTl4m9Mj6VLQIsdH-70" target="6-7wuTl4m9Mj6VLQIsdH-25">
          <mxGeometry relative="1" as="geometry" />
        </mxCell>
        <mxCell id="6-7wuTl4m9Mj6VLQIsdH-70" value="Fan" style="swimlane;fontStyle=1;align=center;verticalAlign=top;childLayout=stackLayout;horizontal=1;startSize=26;horizontalStack=0;resizeParent=1;resizeParentMax=0;resizeLast=0;collapsible=1;marginBottom=0;" vertex="1" parent="1">
          <mxGeometry x="480" y="528" width="160" height="34" as="geometry" />
        </mxCell>
        <mxCell id="6-7wuTl4m9Mj6VLQIsdH-71" value="" style="line;strokeWidth=1;fillColor=none;align=left;verticalAlign=middle;spacingTop=-1;spacingLeft=3;spacingRight=3;rotatable=0;labelPosition=right;points=[];portConstraint=eastwest;" vertex="1" parent="6-7wuTl4m9Mj6VLQIsdH-70">
          <mxGeometry y="26" width="160" height="8" as="geometry" />
        </mxCell>
        <mxCell id="6-7wuTl4m9Mj6VLQIsdH-78" value="return" style="html=1;verticalAlign=bottom;endArrow=open;dashed=1;endSize=8;" edge="1" parent="1" source="6-7wuTl4m9Mj6VLQIsdH-21" target="6-7wuTl4m9Mj6VLQIsdH-1">
          <mxGeometry relative="1" as="geometry">
            <mxPoint x="340" y="280" as="sourcePoint" />
            <mxPoint x="260" y="280" as="targetPoint" />
          </mxGeometry>
        </mxCell>
      </root>
    </mxGraphModel>
  </diagram>
</mxfile>
